<svg width="100" height="40" viewBox="0 0 100 40" fill="none" xmlns="http://www.w3.org/2000/svg">
<path d="M0 0H100V40H0V0Z" fill="#F0DB4F"/>
<path d="M50.132 30.624C50.132 31.384 49.856 31.992 49.304 32.448C48.76 32.896 47.984 33.12 46.976 33.12C46.072 33.12 45.264 32.948 44.552 32.604V30.912C44.96 31.088 45.38 31.252 45.812 31.404C46.252 31.548 46.688 31.62 47.12 31.62C47.568 31.62 47.884 31.536 48.068 31.368C48.26 31.192 48.356 30.972 48.356 30.708C48.356 30.492 48.28 30.308 48.128 30.156C47.984 30.004 47.788 29.864 47.54 29.736C47.292 29.6 47.008 29.456 46.688 29.304C46.488 29.208 46.272 29.096 46.04 28.968C45.808 28.832 45.584 28.668 45.368 28.476C45.16 28.276 44.988 28.036 44.852 27.756C44.716 27.476 44.648 27.14 44.648 26.748C44.648 25.98 44.908 25.384 45.428 24.96C45.948 24.528 46.656 24.312 47.552 24.312C48 24.312 48.424 24.364 48.824 24.468C49.232 24.572 49.656 24.72 50.096 24.912L49.508 26.328C49.116 26.168 48.764 26.044 48.452 25.956C48.14 25.868 47.82 25.824 47.492 25.824C47.148 25.824 46.884 25.904 46.7 26.064C46.516 26.224 46.424 26.432 46.424 26.688C46.424 26.992 46.56 27.232 46.832 27.408C47.104 27.584 47.508 27.8 48.044 28.056C48.484 28.264 48.856 28.48 49.16 28.704C49.472 28.928 49.712 29.192 49.88 29.496C50.048 29.8 50.132 30.176 50.132 30.624ZM55.2654 26.328C55.9694 26.328 56.5334 26.52 56.9574 26.904C57.3814 27.28 57.5934 27.888 57.5934 28.728V33H55.8054V29.172C55.8054 28.7 55.7214 28.348 55.5534 28.116C55.3854 27.876 55.1174 27.756 54.7494 27.756C54.2054 27.756 53.8334 27.944 53.6334 28.32C53.4334 28.688 53.3334 29.22 53.3334 29.916V33H51.5454V26.448H52.9134L53.1534 27.288H53.2494C53.4574 26.952 53.7414 26.708 54.1014 26.556C54.4694 26.404 54.8574 26.328 55.2654 26.328ZM65.3841 29.712C65.3841 30.8 65.0961 31.64 64.5201 32.232C63.9521 32.824 63.1761 33.12 62.1921 33.12C61.5841 33.12 61.0401 32.988 60.5601 32.724C60.0881 32.46 59.7161 32.076 59.4441 31.572C59.1721 31.06 59.0361 30.44 59.0361 29.712C59.0361 28.624 59.3201 27.788 59.8881 27.204C60.4561 26.62 61.2361 26.328 62.2281 26.328C62.8441 26.328 63.3881 26.46 63.8601 26.724C64.3321 26.988 64.7041 27.372 64.9761 27.876C65.2481 28.372 65.3841 28.984 65.3841 29.712ZM60.8601 29.712C60.8601 30.36 60.9641 30.852 61.1721 31.188C61.3881 31.516 61.7361 31.68 62.2161 31.68C62.6881 31.68 63.0281 31.516 63.2361 31.188C63.4521 30.852 63.5601 30.36 63.5601 29.712C63.5601 29.064 63.4521 28.58 63.2361 28.26C63.0281 27.932 62.6841 27.768 62.2041 27.768C61.7321 27.768 61.3881 27.932 61.1721 28.26C60.9641 28.58 60.8601 29.064 60.8601 29.712ZM71.5114 30.708C71.4794 30.572 71.4314 30.372 71.3674 30.108C71.3114 29.836 71.2474 29.548 71.1754 29.244C71.1034 28.932 71.0354 28.648 70.9714 28.392C70.9074 28.128 70.8634 27.936 70.8394 27.816H70.7914C70.7674 27.936 70.7234 28.128 70.6594 28.392C70.6034 28.648 70.5394 28.932 70.4674 29.244C70.3954 29.548 70.3274 29.836 70.2634 30.108C70.1994 30.38 70.1514 30.588 70.1194 30.732L69.5914 33H67.6714L65.8114 26.448H67.5874L68.3434 29.352C68.3994 29.552 68.4474 29.792 68.4874 30.072C68.5354 30.352 68.5794 30.624 68.6194 30.888C68.6594 31.144 68.6874 31.348 68.7034 31.5H68.7514C68.7594 31.388 68.7754 31.24 68.7994 31.056C68.8234 30.864 68.8514 30.668 68.8834 30.468C68.9234 30.268 68.9554 30.088 68.9794 29.928C69.0114 29.76 69.0354 29.648 69.0514 29.592L69.8554 26.448H71.8234L72.5914 29.592C72.6234 29.704 72.6594 29.884 72.6994 30.132C72.7474 30.38 72.7874 30.632 72.8194 30.888C72.8594 31.144 72.8794 31.348 72.8794 31.5H72.9274C72.9434 31.364 72.9714 31.168 73.0114 30.912C73.0514 30.648 73.0954 30.372 73.1434 30.084C73.1994 29.796 73.2554 29.552 73.3114 29.352L74.0914 26.448H75.8434L73.9594 33H72.0154L71.5114 30.708ZM75.9688 26.448H77.9248L79.1608 30.132C79.2248 30.308 79.2728 30.492 79.3048 30.684C79.3368 30.868 79.3608 31.064 79.3768 31.272H79.4128C79.4368 31.064 79.4688 30.868 79.5088 30.684C79.5568 30.492 79.6088 30.308 79.6648 30.132L80.8768 26.448H82.7968L80.0248 33.84C79.7768 34.52 79.4128 35.028 78.9328 35.364C78.4608 35.708 77.9128 35.88 77.2888 35.88C77.0888 35.88 76.9128 35.868 76.7607 35.844C76.6168 35.828 76.4888 35.808 76.3768 35.784V34.368C76.4648 34.384 76.5688 34.4 76.6888 34.416C76.8168 34.432 76.9488 34.44 77.0848 34.44C77.4608 34.44 77.7568 34.324 77.9728 34.092C78.1968 33.868 78.3608 33.596 78.4648 33.276L78.5728 32.952L75.9688 26.448ZM82.9808 35.52C82.7488 35.52 82.5448 35.504 82.3688 35.472C82.1928 35.448 82.0408 35.42 81.9128 35.388V33.876C82.0408 33.908 82.1768 33.936 82.3208 33.96C82.4568 33.984 82.6048 33.996 82.7648 33.996C82.9728 33.996 83.1608 33.956 83.3288 33.876C83.5048 33.796 83.6408 33.644 83.7368 33.42C83.8328 33.196 83.8808 32.876 83.8808 32.46V24.432H85.6928V32.448C85.6928 33.184 85.5768 33.776 85.3448 34.224C85.1208 34.68 84.8048 35.008 84.3968 35.208C83.9888 35.416 83.5168 35.52 82.9808 35.52ZM92.9054 30.624C92.9054 31.384 92.6294 31.992 92.0774 32.448C91.5334 32.896 90.7574 33.12 89.7494 33.12C88.8454 33.12 88.0374 32.948 87.3254 32.604V30.912C87.7334 31.088 88.1534 31.252 88.5854 31.404C89.0254 31.548 89.4614 31.62 89.8934 31.62C90.3414 31.62 90.6574 31.536 90.8414 31.368C91.0334 31.192 91.1294 30.972 91.1294 30.708C91.1294 30.492 91.0534 30.308 90.9014 30.156C90.7574 30.004 90.5614 29.864 90.3134 29.736C90.0654 29.6 89.7814 29.456 89.4614 29.304C89.2614 29.208 89.0454 29.096 88.8134 28.968C88.5814 28.832 88.3574 28.668 88.1414 28.476C87.9334 28.276 87.7614 28.036 87.6254 27.756C87.4894 27.476 87.4214 27.14 87.4214 26.748C87.4214 25.98 87.6814 25.384 88.2014 24.96C88.7214 24.528 89.4294 24.312 90.3254 24.312C90.7734 24.312 91.1974 24.364 91.5974 24.468C92.0054 24.572 92.4294 24.72 92.8694 24.912L92.2814 26.328C91.8894 26.168 91.5374 26.044 91.2254 25.956C90.9134 25.868 90.5934 25.824 90.2654 25.824C89.9214 25.824 89.6574 25.904 89.4734 26.064C89.2894 26.224 89.1974 26.432 89.1974 26.688C89.1974 26.992 89.3334 27.232 89.6054 27.408C89.8774 27.584 90.2814 27.8 90.8174 28.056C91.2574 28.264 91.6294 28.48 91.9334 28.704C92.2454 28.928 92.4854 29.192 92.6534 29.496C92.8214 29.8 92.9054 30.176 92.9054 30.624Z" fill="#323330"/>
<rect x="19.3253" y="8" width="2" height="25" fill="#323330"/>
<rect x="30.6506" y="14" width="2" height="25" transform="rotate(60 30.6506 14)" fill="#323330"/>
<rect x="11" y="12.4142" width="2" height="25" transform="rotate(-45 11 12.4142)" fill="#323330"/>
</svg>
