<svg width="100" height="40" viewBox="0 0 100 40" fill="none" xmlns="http://www.w3.org/2000/svg">
<path d="M0 0H100V40H0V0Z" fill="#F0DB4F"/>
<path d="M54.132 30.624C54.132 31.384 53.856 31.992 53.304 32.448C52.76 32.896 51.984 33.12 50.976 33.12C50.072 33.12 49.264 32.948 48.552 32.604V30.912C48.96 31.088 49.38 31.252 49.812 31.404C50.252 31.548 50.688 31.62 51.12 31.62C51.568 31.62 51.884 31.536 52.068 31.368C52.26 31.192 52.356 30.972 52.356 30.708C52.356 30.492 52.28 30.308 52.128 30.156C51.984 30.004 51.788 29.864 51.54 29.736C51.292 29.6 51.008 29.456 50.688 29.304C50.488 29.208 50.272 29.096 50.04 28.968C49.808 28.832 49.584 28.668 49.368 28.476C49.16 28.276 48.988 28.036 48.852 27.756C48.716 27.476 48.648 27.14 48.648 26.748C48.648 25.98 48.908 25.384 49.428 24.96C49.948 24.528 50.656 24.312 51.552 24.312C52 24.312 52.424 24.364 52.824 24.468C53.232 24.572 53.656 24.72 54.096 24.912L53.508 26.328C53.116 26.168 52.764 26.044 52.452 25.956C52.14 25.868 51.82 25.824 51.492 25.824C51.148 25.824 50.884 25.904 50.7 26.064C50.516 26.224 50.424 26.432 50.424 26.688C50.424 26.992 50.56 27.232 50.832 27.408C51.104 27.584 51.508 27.8 52.044 28.056C52.484 28.264 52.856 28.48 53.16 28.704C53.472 28.928 53.712 29.192 53.88 29.496C54.048 29.8 54.132 30.176 54.132 30.624ZM59.2654 26.328C59.9694 26.328 60.5334 26.52 60.9574 26.904C61.3814 27.28 61.5934 27.888 61.5934 28.728V33H59.8054V29.172C59.8054 28.7 59.7214 28.348 59.5534 28.116C59.3854 27.876 59.1174 27.756 58.7494 27.756C58.2054 27.756 57.8334 27.944 57.6334 28.32C57.4334 28.688 57.3334 29.22 57.3334 29.916V33H55.5454V26.448H56.9134L57.1534 27.288H57.2494C57.4574 26.952 57.7414 26.708 58.1014 26.556C58.4694 26.404 58.8574 26.328 59.2654 26.328ZM69.3841 29.712C69.3841 30.8 69.0961 31.64 68.5201 32.232C67.9521 32.824 67.1761 33.12 66.1921 33.12C65.5841 33.12 65.0401 32.988 64.5601 32.724C64.0881 32.46 63.7161 32.076 63.4441 31.572C63.1721 31.06 63.0361 30.44 63.0361 29.712C63.0361 28.624 63.3201 27.788 63.8881 27.204C64.4561 26.62 65.2361 26.328 66.2281 26.328C66.8441 26.328 67.3881 26.46 67.8601 26.724C68.3321 26.988 68.7041 27.372 68.9761 27.876C69.2481 28.372 69.3841 28.984 69.3841 29.712ZM64.8601 29.712C64.8601 30.36 64.9641 30.852 65.1721 31.188C65.3881 31.516 65.7361 31.68 66.2161 31.68C66.6881 31.68 67.0281 31.516 67.2361 31.188C67.4521 30.852 67.5601 30.36 67.5601 29.712C67.5601 29.064 67.4521 28.58 67.2361 28.26C67.0281 27.932 66.6841 27.768 66.2041 27.768C65.7321 27.768 65.3881 27.932 65.1721 28.26C64.9641 28.58 64.8601 29.064 64.8601 29.712ZM75.5114 30.708C75.4794 30.572 75.4314 30.372 75.3674 30.108C75.3114 29.836 75.2474 29.548 75.1754 29.244C75.1034 28.932 75.0354 28.648 74.9714 28.392C74.9074 28.128 74.8634 27.936 74.8394 27.816H74.7914C74.7674 27.936 74.7234 28.128 74.6594 28.392C74.6034 28.648 74.5394 28.932 74.4674 29.244C74.3954 29.548 74.3274 29.836 74.2634 30.108C74.1994 30.38 74.1514 30.588 74.1194 30.732L73.5914 33H71.6714L69.8114 26.448H71.5874L72.3434 29.352C72.3994 29.552 72.4474 29.792 72.4874 30.072C72.5354 30.352 72.5794 30.624 72.6194 30.888C72.6594 31.144 72.6874 31.348 72.7034 31.5H72.7514C72.7594 31.388 72.7754 31.24 72.7994 31.056C72.8234 30.864 72.8514 30.668 72.8834 30.468C72.9234 30.268 72.9554 30.088 72.9794 29.928C73.0114 29.76 73.0354 29.648 73.0514 29.592L73.8554 26.448H75.8234L76.5914 29.592C76.6234 29.704 76.6594 29.884 76.6994 30.132C76.7474 30.38 76.7874 30.632 76.8194 30.888C76.8594 31.144 76.8794 31.348 76.8794 31.5H76.9274C76.9434 31.364 76.9714 31.168 77.0114 30.912C77.0514 30.648 77.0954 30.372 77.1434 30.084C77.1994 29.796 77.2554 29.552 77.3114 29.352L78.0914 26.448H79.8434L77.9594 33H76.0154L75.5114 30.708ZM80.1488 35.52C79.9167 35.52 79.7127 35.504 79.5367 35.472C79.3607 35.448 79.2087 35.42 79.0807 35.388V33.876C79.2087 33.908 79.3447 33.936 79.4887 33.96C79.6247 33.984 79.7727 33.996 79.9327 33.996C80.1408 33.996 80.3288 33.956 80.4968 33.876C80.6728 33.796 80.8088 33.644 80.9048 33.42C81.0008 33.196 81.0488 32.876 81.0488 32.46V24.432H82.8608V32.448C82.8608 33.184 82.7448 33.776 82.5128 34.224C82.2888 34.68 81.9728 35.008 81.5648 35.208C81.1568 35.416 80.6848 35.52 80.1488 35.52ZM90.0734 30.624C90.0734 31.384 89.7974 31.992 89.2454 32.448C88.7014 32.896 87.9254 33.12 86.9174 33.12C86.0134 33.12 85.2054 32.948 84.4934 32.604V30.912C84.9014 31.088 85.3214 31.252 85.7534 31.404C86.1934 31.548 86.6294 31.62 87.0614 31.62C87.5094 31.62 87.8254 31.536 88.0094 31.368C88.2014 31.192 88.2974 30.972 88.2974 30.708C88.2974 30.492 88.2214 30.308 88.0694 30.156C87.9254 30.004 87.7294 29.864 87.4814 29.736C87.2334 29.6 86.9494 29.456 86.6294 29.304C86.4294 29.208 86.2134 29.096 85.9814 28.968C85.7494 28.832 85.5254 28.668 85.3094 28.476C85.1014 28.276 84.9294 28.036 84.7934 27.756C84.6574 27.476 84.5894 27.14 84.5894 26.748C84.5894 25.98 84.8494 25.384 85.3694 24.96C85.8894 24.528 86.5974 24.312 87.4934 24.312C87.9414 24.312 88.3654 24.364 88.7654 24.468C89.1734 24.572 89.5974 24.72 90.0374 24.912L89.4494 26.328C89.0574 26.168 88.7054 26.044 88.3934 25.956C88.0814 25.868 87.7614 25.824 87.4334 25.824C87.0894 25.824 86.8254 25.904 86.6414 26.064C86.4574 26.224 86.3654 26.432 86.3654 26.688C86.3654 26.992 86.5014 27.232 86.7734 27.408C87.0454 27.584 87.4494 27.8 87.9854 28.056C88.4254 28.264 88.7974 28.48 89.1014 28.704C89.4134 28.928 89.6534 29.192 89.8214 29.496C89.9894 29.8 90.0734 30.176 90.0734 30.624Z" fill="#323330"/>
<rect x="19.3253" y="8" width="2" height="25" fill="#323330"/>
<rect x="30.6506" y="14" width="2" height="25" transform="rotate(60 30.6506 14)" fill="#323330"/>
<rect x="11" y="12.4142" width="2" height="25" transform="rotate(-45 11 12.4142)" fill="#323330"/>
</svg>
